<?xml version="1.0" standalone="no"?>
<!DOCTYPE svg PUBLIC "-//W3C//DTD SVG 20010904//EN"
 "http://www.w3.org/TR/2001/REC-SVG-20010904/DTD/svg10.dtd">
<svg version="1.0" xmlns="http://www.w3.org/2000/svg"
 width="512.000000pt" height="512.000000pt" viewBox="0 0 512.000000 512.000000"
 preserveAspectRatio="xMidYMid meet">
<metadata>
Created by potrace 1.11, written by Peter Selinger 2001-2013
</metadata>
<g transform="translate(0.000000,512.000000) scale(0.100000,-0.100000)"
fill="#000000" stroke="none">
<path d="M459 3442 c-67 -35 -74 -55 -75 -234 0 -127 3 -167 15 -191 47 -93
171 -96 225 -5 13 21 16 57 16 181 0 85 -5 167 -11 183 -24 65 -108 97 -170
66z"/>
<path d="M1511 3453 c-37 -7 -70 -32 -87 -65 -22 -42 -20 -336 1 -379 31 -60
125 -81 184 -42 15 10 30 16 34 15 5 -1 6 1 3 6 -3 5 1 26 8 48 20 59 14 310
-8 352 -26 51 -79 76 -135 65z"/>
<path d="M2525 3449 c-80 -24 -95 -62 -95 -240 0 -78 5 -158 11 -178 28 -95
175 -113 229 -27 22 34 27 316 6 370 -26 65 -85 94 -151 75z"/>
<path d="M3534 3445 c-68 -29 -81 -71 -79 -260 1 -153 9 -183 58 -219 35 -26
102 -26 141 -1 50 33 56 60 56 235 0 173 -7 202 -52 232 -33 22 -90 28 -124
13z"/>
<path d="M4547 3439 c-58 -31 -67 -62 -67 -240 0 -181 9 -211 76 -241 65 -28
125 -9 162 52 26 42 25 343 -1 383 -39 60 -109 79 -170 46z"/>
<path d="M2523 2813 c-23 -4 -296 -267 -327 -315 -12 -19 -18 -51 -20 -110
l-2 -83 -909 -1 c-1018 0 -956 4 -993 -72 -21 -43 -20 -80 4 -121 39 -65 -21
-62 984 -61 500 0 911 -4 911 -8 1 -4 2 -68 3 -142 2 -148 11 -178 59 -214 27
-20 40 -21 326 -21 266 0 300 2 324 18 51 33 60 68 61 222 l1 140 910 2 c829
3 913 4 941 20 85 45 88 164 5 215 l-36 23 -895 1 c-492 1 -902 2 -911 3 -12
1 -15 14 -14 65 0 34 -3 77 -7 93 -5 20 -58 81 -153 176 -79 80 -153 151 -163
156 -24 13 -70 19 -99 14z m105 -376 l63 -63 -2 -227 -1 -227 -129 0 -129 0 0
226 1 226 61 64 c34 35 64 64 67 64 4 0 35 -28 69 -63z"/>
</g>
</svg>
